<svg viewBox="0 0 1024 1024" xmlns="http://www.w3.org/2000/svg" fill="#f4e4cf"><g id="SVGRepo_bgCarrier" stroke-width="0"></g><g id="SVGRepo_tracerCarrier" stroke-linecap="round" stroke-linejoin="round"></g><g id="SVGRepo_iconCarrier"><path fill="#f4e4cf" d="M352 480h320a32 32 0 1 1 0 64H352a32 32 0 0 1 0-64z"></path><path fill="#f4e4cf" d="M480 672V352a32 32 0 1 1 64 0v320a32 32 0 0 1-64 0z"></path><path fill="#f4e4cf" d="M512 896a384 384 0 1 0 0-768 384 384 0 0 0 0 768zm0 64a448 448 0 1 1 0-896 448 448 0 0 1 0 896z"></path></g></svg>